<svg width="47" height="47" viewBox="0 0 47 47" fill="none" xmlns="http://www.w3.org/2000/svg">
<path d="M22.57 30.76L15.41 35.96C14.49 36.63 13.26 35.73 13.61 34.65L16.35 26.23C16.51 25.75 16.34 25.22 15.92 24.92L8.76 19.72C7.84 19.05 8.31 17.6 9.45 17.6H18.3C18.81 17.6 19.26 17.27 19.41 16.79L22.15 8.37C22.5 7.29 24.03 7.29 24.38 8.37L27.12 16.79C27.28 17.27 27.73 17.6 28.23 17.6H37.08C38.21 17.6 38.69 19.05 37.77 19.72L30.61 24.92C30.2 25.22 30.03 25.75 30.18 26.23L32.92 34.65C33.27 35.73 32.04 36.63 31.12 35.96L23.96 30.76C23.55 30.46 22.99 30.46 22.58 30.76H22.57Z" stroke="#449F82" stroke-linecap="round" stroke-linejoin="round"/>
<path d="M23.26 45.52C35.5539 45.52 45.52 35.5539 45.52 23.26C45.52 10.9661 35.5539 1 23.26 1C10.9661 1 1 10.9661 1 23.26C1 35.5539 10.9661 45.52 23.26 45.52Z" stroke="#449F82" stroke-linecap="round" stroke-linejoin="round"/>
</svg>
