<svg width="58" height="44" viewBox="0 0 58 44" fill="none" xmlns="http://www.w3.org/2000/svg">
<path d="M56.61 35.08V8.76L28.8 1L1 8.76V35.08" stroke="#449F82" stroke-linecap="round" stroke-linejoin="round"/>
<path d="M28.8002 23.19C31.8709 23.19 34.3602 20.7007 34.3602 17.63C34.3602 14.5593 31.8709 12.07 28.8002 12.07C25.7295 12.07 23.2402 14.5593 23.2402 17.63C23.2402 20.7007 25.7295 23.19 28.8002 23.19Z" stroke="#449F82" stroke-linecap="round" stroke-linejoin="round"/>
<path d="M32.23 22.02C33.53 22.29 34.37 22.72 34.37 23.2C34.37 24.03 31.88 24.7 28.81 24.7C25.74 24.7 23.25 24.03 23.25 23.2C23.25 22.72 24.09 22.29 25.39 22.02" stroke="#449F82" stroke-linecap="round" stroke-linejoin="round"/>
<path d="M34.37 35.01C34.37 35.84 31.88 36.51 28.81 36.51C25.74 36.51 23.25 35.84 23.25 35.01" stroke="#449F82" stroke-linecap="round" stroke-linejoin="round"/>
<path d="M23.2402 23.2V35.01" stroke="#449F82" stroke-linecap="round" stroke-linejoin="round"/>
<path d="M34.3701 23.2V35.01" stroke="#449F82" stroke-linecap="round" stroke-linejoin="round"/>
<path d="M34.37 28.68L56.61 35.08L28.8 42.85L1 35.08L23.24 28.68" stroke="#449F82" stroke-linecap="round" stroke-linejoin="round"/>
<path d="M28.8 1V12.07" stroke="#449F82" stroke-linecap="round" stroke-linejoin="round"/>
</svg>
