<svg width="42" height="48" viewBox="0 0 42 48" fill="none" xmlns="http://www.w3.org/2000/svg">
<path d="M27.17 43.9138L38.88 32.2038C39.86 31.2238 39.86 29.6238 38.88 28.6338C37.9 27.6538 36.3 27.6538 35.31 28.6338L27.14 36.8038" stroke="#449F82" stroke-linecap="round" stroke-linejoin="round"/>
<path d="M27.1399 36.8038L40.2599 23.6838C41.2399 22.7038 41.2399 21.1038 40.2599 20.1138C39.2799 19.1338 37.6799 19.1338 36.6899 20.1138L23.5699 33.2338" stroke="#449F82" stroke-linecap="round" stroke-linejoin="round"/>
<path d="M26.4 30.4038L38.11 18.6938C39.09 17.7138 39.09 16.1138 38.11 15.1238C37.13 14.1438 35.53 14.1438 34.54 15.1238L22.83 26.8338" stroke="#449F82" stroke-linecap="round" stroke-linejoin="round"/>
<path d="M20.01 29.6738L33.13 16.5538C34.11 15.5738 34.11 13.9738 33.13 12.9838C32.15 12.0038 30.55 12.0038 29.56 12.9838L16.15 26.3938L18.4 19.0838C18.82 17.7238 18.64 16.2438 17.9 15.0138C17.27 13.9738 15.73 14.0738 15.24 15.1838L8.19998 31.3238C6.49998 35.5138 7.34998 40.4938 10.75 43.8938C15.28 48.4238 22.63 48.4238 27.16 43.8938" stroke="#449F82" stroke-linecap="round" stroke-linejoin="round"/>
<path d="M25.89 12.2438L27.51 8.23376C28.03 6.94376 27.41 5.47376 26.11 4.95376C24.82 4.43376 23.35 5.05376 22.83 6.35376" stroke="#449F82" stroke-linecap="round" stroke-linejoin="round"/>
<path d="M19.61 14.3238L23.58 4.48376C24.1 3.19376 23.48 1.72376 22.18 1.20376C20.89 0.683756 19.42 1.30376 18.9 2.60376L15.18 11.8238" stroke="#449F82" stroke-linecap="round" stroke-linejoin="round"/>
<path d="M18.15 4.46377C18.67 3.17377 18.05 1.70377 16.75 1.18377C15.46 0.663767 13.99 1.28377 13.47 2.58377L6.38 20.1738L5.59 12.5738C5.44 11.1538 4.7 9.86377 3.54 9.02377C2.56 8.31377 1.18 9.00377 1.16 10.2238L1 27.8338C1.05 30.6638 2.13 33.3838 4.03 35.4638" stroke="#449F82" stroke-linecap="round" stroke-linejoin="round"/>
</svg>
