<svg width="50" height="41" viewBox="0 0 50 41" fill="none" xmlns="http://www.w3.org/2000/svg">
<path d="M20.73 15.4C24.7064 15.4 27.93 12.1764 27.93 8.2C27.93 4.22355 24.7064 1 20.73 1C16.7535 1 13.53 4.22355 13.53 8.2C13.53 12.1764 16.7535 15.4 20.73 15.4Z" stroke="#449F82" stroke-linecap="round" stroke-linejoin="round"/>
<path d="M6.48001 32.65C6.48001 24.78 12.86 18.4 20.73 18.4C28.6 18.4 34.98 24.78 34.98 32.65H6.48001Z" stroke="#449F82" stroke-linecap="round" stroke-linejoin="round"/>
<path d="M48.61 32.65H1V39.96H48.61V32.65Z" stroke="#449F82" stroke-linecap="round" stroke-linejoin="round"/>
<path d="M43.14 32.65V23.4" stroke="#449F82" stroke-linecap="round" stroke-linejoin="round"/>
<path d="M43.14 23.4L36.61 16.87" stroke="#449F82" stroke-linecap="round" stroke-linejoin="round"/>
<path d="M36.9555 13.9414C36.0494 13.0353 34.5805 13.0353 33.6745 13.9414C32.7685 14.8474 32.7685 16.3163 33.6745 17.2223L36.2413 19.7891C37.1473 20.6952 38.6162 20.6952 39.5223 19.7891C40.4283 18.8831 40.4283 17.4142 39.5223 16.5082L36.9555 13.9414Z" stroke="#449F82" stroke-linecap="round" stroke-linejoin="round"/>
</svg>
