<svg width="58" height="40" viewBox="0 0 58 40" fill="none" xmlns="http://www.w3.org/2000/svg">
<path d="M48.29 14.16C51.924 14.16 54.87 11.214 54.87 7.58C54.87 3.94597 51.924 1 48.29 1C44.656 1 41.71 3.94597 41.71 7.58C41.71 11.214 44.656 14.16 48.29 14.16Z" stroke="#449F82" stroke-linecap="round" stroke-linejoin="round"/>
<path d="M36.07 24.12V38.63H1V1H36.07V18.01" stroke="#449F82" stroke-linecap="round" stroke-linejoin="round"/>
<path d="M41.71 38.63V24.12H32.3L19.81 18.48C18.81 18.03 18.17 17.04 18.17 15.94C18.17 13.92 20.26 12.57 22.1 13.4L32.29 18.01H41.7H54.27C55.96 18.01 57.32 19.38 57.32 21.06V38.62H41.69L41.71 38.63Z" stroke="#449F82" stroke-linecap="round" stroke-linejoin="round"/>
</svg>
