<svg width="64" height="38" viewBox="0 0 64 38" fill="none" xmlns="http://www.w3.org/2000/svg">
<path d="M11.83 23.97C14.851 23.97 17.3 21.521 17.3 18.5C17.3 15.479 14.851 13.03 11.83 13.03C8.80899 13.03 6.35999 15.479 6.35999 18.5C6.35999 21.521 8.80899 23.97 11.83 23.97Z" stroke="#449F82" stroke-linecap="round" stroke-linejoin="round"/>
<path d="M1 37.07C1 31.09 5.85 26.24 11.83 26.24C17.81 26.24 22.66 31.09 22.66 37.07H1Z" stroke="#449F82" stroke-linecap="round" stroke-linejoin="round"/>
<path d="M52 23.97C55.021 23.97 57.47 21.521 57.47 18.5C57.47 15.479 55.021 13.03 52 13.03C48.979 13.03 46.53 15.479 46.53 18.5C46.53 21.521 48.979 23.97 52 23.97Z" stroke="#449F82" stroke-linecap="round" stroke-linejoin="round"/>
<path d="M41.17 37.07C41.17 31.09 46.02 26.24 52 26.24C57.98 26.24 62.83 31.09 62.83 37.07H41.18H41.17Z" stroke="#449F82" stroke-linecap="round" stroke-linejoin="round"/>
<path d="M31.91 11.94C34.931 11.94 37.38 9.491 37.38 6.47C37.38 3.449 34.931 1 31.91 1C28.889 1 26.44 3.449 26.44 6.47C26.44 9.491 28.889 11.94 31.91 11.94Z" stroke="#449F82" stroke-linecap="round" stroke-linejoin="round"/>
<path d="M21.09 25.05C21.09 19.07 25.94 14.22 31.92 14.22C37.9 14.22 42.75 19.07 42.75 25.05H21.1H21.09Z" stroke="#449F82" stroke-linecap="round" stroke-linejoin="round"/>
</svg>
