<svg width="46" height="47" viewBox="0 0 46 47" fill="none" xmlns="http://www.w3.org/2000/svg">
<path d="M14.05 20.96C16.6623 20.96 18.78 18.8423 18.78 16.23C18.78 13.6177 16.6623 11.5 14.05 11.5C11.4377 11.5 9.32001 13.6177 9.32001 16.23C9.32001 18.8423 11.4377 20.96 14.05 20.96Z" stroke="#449F82" stroke-linecap="round" stroke-linejoin="round"/>
<path d="M4.70001 32.28C4.70001 27.12 8.89001 22.93 14.05 22.93C19.21 22.93 23.4 27.12 23.4 32.28H4.70001Z" stroke="#449F82" stroke-linecap="round" stroke-linejoin="round"/>
<path d="M15.45 44.35H1V32.28H25.45" stroke="#449F82" stroke-linecap="round" stroke-linejoin="round"/>
<path d="M35.01 32.28H45.12V46.38" stroke="#449F82" stroke-linecap="round" stroke-linejoin="round"/>
<path d="M30.23 28.36C34.3887 28.36 37.76 24.9887 37.76 20.83C37.76 16.6713 34.3887 13.3 30.23 13.3C26.0713 13.3 22.7 16.6713 22.7 20.83C22.7 24.9887 26.0713 28.36 30.23 28.36Z" stroke="#449F82" stroke-linecap="round" stroke-linejoin="round"/>
<path d="M15.34 46.38C15.34 38.16 22.01 31.49 30.23 31.49C38.45 31.49 45.12 38.16 45.12 46.38H15.34Z" stroke="#449F82" stroke-linecap="round" stroke-linejoin="round"/>
<path d="M4.70001 32.28V8.32001H41.42V32.28" stroke="#449F82" stroke-linecap="round" stroke-linejoin="round"/>
<path d="M45.12 1H1V8.32H45.12V1Z" stroke="#449F82" stroke-linecap="round" stroke-linejoin="round"/>
</svg>
