<?xml version="1.0" encoding="UTF-8"?>
<svg id="Capa_1" xmlns="http://www.w3.org/2000/svg" version="1.1" viewBox="0 0 305 163">
  <!-- Generator: Adobe Illustrator 29.2.1, SVG Export Plug-In . SVG Version: 2.1.0 Build 116)  -->
  <defs>
    <style>
      .st0 {
        fill: #fff;
      }
    </style>
  </defs>
  <path class="st0" d="M24.6,43.8h5.8v21.1c0,10.3-6,16.3-15.7,16.3s-12.6-3.9-14.7-9.4l5.8-1.5c1.4,3.5,4.8,5.5,8.9,5.5,6.4,0,9.9-4,9.9-10.6v-21.4ZM59.2,43.8l15.5,36.7h-6.2l-3.4-8.3h-17.1l-3.4,8.3h-6.2l15.5-36.7h5.4ZM63,67.1l-4.7-11.5c-.8-2-1.7-4.8-1.7-4.8h0s-.9,2.8-1.7,4.8l-4.7,11.5h13ZM113,80.5h-6.5s-7.8-13.1-7.8-13.1c-.4,0-.7,0-1.1,0h-6.2v13.1h-5.8v-36.7h12c8.8,0,14.1,4.7,14.1,11.9s-2.7,8.9-7.3,10.6l8.7,14.2ZM105.6,55.7c0-3.6-2.6-6.5-7.4-6.5h-6.9v13h6.9c5,0,7.4-2.9,7.4-6.5ZM160.6,62.3c0,11-8.4,18.2-18.8,18.2h-15.9v-36.7h15.6c10.5,0,19,7.5,19,18.5ZM154.5,62.3c0-8-5.9-13-13-13h-9.8v25.8h10.1c6.8,0,12.7-4.8,12.7-12.7ZM173.2,80.5h5.8v-36.7h-5.8v36.7ZM219.7,59.4c0,5.8.2,11.2.1,11.2h0s-3.7-5.1-6.3-8.7l-13.5-18.1h-5.5v36.7h5.8v-15.6c0-6.6-.2-11.5-.1-11.5h0c0,0,3.2,4.6,6.5,9l13.4,18h5.5v-36.7h-5.8v15.6ZM246.8,75.1v-11.1h15.5v-5.1h-15.5v-9.5h19.4v-5.5h-25.2v36.7h25.5v-5.5h0s-19.7,0-19.7,0ZM292.7,59.2c-4.7-1.5-9.3-2.6-9.3-6.1s2.9-4.9,6.9-4.9,7.4,2.3,8.2,6.4h0s5.5-1.5,5.5-1.5c-1.4-5.9-6.7-9.9-13.5-9.9s-13,4.6-13,10.3,5.8,8.4,10.1,9.9c5.2,1.7,10.8,2.7,10.8,7.2s-2.7,5.5-7.4,5.5-8.5-3.4-9.2-7.2l-5.5,1.5c1.6,6.4,6.3,10.9,14.5,10.9s13.7-4.6,13.7-11-6.5-9.4-11.8-11.1ZM181.1,136.1l9.8,19.8h-3.4l-6.5-13.4-6.4,13c-.5,1.3-1.3,2.5-2.4,3.5-2.1,2-4.6,3.1-7.5,3.1s-5.4-1-7.4-3.1c-1.4-1.4-2.3-3-2.8-4.8-2.1,2-4.6,3-7.5,3s-5-.9-7-2.7c-1.5-1.3-2.4-2.8-3-4.5l-6.2,12.2-9.8-19.8h3.4l6.5,13.4,6.3-12.8c.5-1.3,1.3-2.5,2.4-3.6,2.1-2,4.6-3.1,7.5-3.1s5.3,1,7.4,3.1c1.4,1.4,2.3,3,2.8,4.8,2.1-2,4.6-3,7.5-3s4.8.8,6.9,2.5l-1.2,3c-.1-.2-.3-.3-.5-.5-1.5-1.4-3.2-2.2-5.2-2.2s-3.9.7-5.4,2.2c-1.5,1.5-2.2,3.3-2.2,5.4s.7,4,2.2,5.4c1.4,1.5,3.2,2.2,5.3,2.2s3.9-.7,5.3-2.2c.4-.5.8-.9,1.1-1.4l.5-.9c.2-.5.3-.9.4-1.4h-6.6l1.4-2.6h6.9l7.3-14.5h0ZM154.6,146.7c0-2.2-.7-4-2.2-5.4-1.4-1.5-3.2-2.2-5.3-2.2s-3.9.7-5.3,2.2c-.4.4-.8.9-1.1,1.4l-.5,1c-.4.9-.6,1.9-.6,3,0,2.2.8,4.1,2.2,5.5,1.5,1.4,3.2,2.2,5.2,2.2,2.1,0,3.9-.7,5.4-2.2,1.5-1.5,2.2-3.3,2.2-5.4ZM109.6,123.8c13.6-2.3,29.4-3.6,46.4-3.6s32.8,1.3,46.4,3.6c-12.5-3.8-28.7-6.1-46.4-6.1s-33.9,2.3-46.4,6.1ZM133.7,17.3h-10.2V.4h-3.1v19.8h13.3v-2.9ZM138,10.3c0-6,4.6-10.3,10.3-10.3s10.3,4.3,10.3,10.3-4.6,10.3-10.3,10.3-10.3-4.3-10.3-10.3ZM141.3,10.3c0,4.3,3,7.2,7,7.2s7-2.9,7-7.2-3-7.2-7-7.2-7,2.9-7,7.2ZM172,17.8c-2.9,0-4.6-1.8-5-3.9l-3,.8c.8,3.5,3.4,5.9,7.8,5.9s7.4-2.5,7.4-5.9-3.5-5.1-6.4-6c-2.5-.8-5-1.4-5-3.3s1.6-2.7,3.7-2.7,4,1.2,4.4,3.5l3-.8c-.7-3.2-3.6-5.3-7.3-5.3s-7,2.5-7,5.5,3.1,4.6,5.5,5.4c2.8.9,5.9,1.4,5.9,3.9s-1.5,3-4,3Z"/>
</svg>