<svg width="216" height="115" viewBox="0 0 216 115" fill="none" xmlns="http://www.w3.org/2000/svg">
<path d="M21.47 30.95V45.8699C21.47 53.16 17.21 57.38 10.36 57.38C5.43999 57.38 1.43999 54.6 -0.0100098 50.72L4.05999 49.65C5.01999 52.09 7.42999 53.57 10.35 53.57C14.87 53.57 17.35 50.7199 17.35 46.0499V30.95H21.46H21.47Z" fill="#60682D"/>
<path d="M45.9701 50.97H33.8601L31.4501 56.86H27.05L38.01 30.95H41.82L52.78 56.86H48.3801L45.9701 50.97ZM44.4901 47.38L41.16 39.27C40.61 37.86 39.98 35.9 39.94 35.9H39.9001C39.9001 35.9 39.2301 37.86 38.68 39.27L35.35 47.38H44.4901Z" fill="#60682D"/>
<path d="M75.1799 56.86L69.6999 47.57C69.4399 47.61 69.1799 47.61 68.8899 47.61H64.5199V56.87H60.4099V30.96H68.8899C75.1099 30.96 78.8499 34.25 78.8499 39.36C78.8499 42.99 76.9599 45.62 73.6699 46.84L79.8199 56.87H75.1899L75.1799 56.86ZM69.3699 43.97C72.8899 43.97 74.5899 41.9 74.5899 39.34C74.5899 36.78 72.7399 34.79 69.3699 34.79H64.5199V43.97H69.3699Z" fill="#60682D"/>
<path d="M99.9699 30.95C107.37 30.95 113.41 36.24 113.41 44.02C113.41 51.8 107.45 56.8699 100.16 56.8699H88.9399V30.9599H99.9699V30.95ZM100.16 53.0099C104.97 53.0099 109.15 49.6399 109.15 44.0099C109.15 38.3799 104.97 34.79 99.9699 34.79H93.0499V53H100.16V53.0099Z" fill="#60682D"/>
<path d="M122.29 56.86V30.95H126.4V56.86H122.29Z" fill="#60682D"/>
<path d="M159.27 30.95V56.86H155.42L145.98 44.13C143.68 40.98 141.46 37.7599 141.43 37.7599H141.39C141.39 37.7599 141.46 41.2399 141.46 45.8699V56.86H137.35V30.95H141.2L150.71 43.72C152.56 46.24 155.15 49.8699 155.19 49.8699H155.23C155.23 49.8699 155.16 46.06 155.16 41.99V30.9599H159.27V30.95Z" fill="#60682D"/>
<path d="M188.25 53.0099V56.86H170.22V30.95H188.03V34.7999H174.33V41.54H185.25V45.1699H174.33V53.02H188.25V53.0099Z" fill="#60682D"/>
<path d="M210.83 38.4999C210.24 35.6099 207.79 33.9799 205.02 33.9799C202.25 33.9799 200.17 35.3899 200.17 37.4599C200.17 39.9399 203.43 40.7499 206.76 41.7899C210.46 42.9699 215.09 44.7899 215.09 49.6399C215.09 54.1199 211.2 57.3799 205.43 57.3799C199.66 57.3799 196.29 54.1999 195.18 49.6799L199.1 48.6099C199.58 51.3099 201.84 53.7199 205.58 53.7199C208.88 53.7199 210.8 52.0199 210.8 49.7999C210.8 46.5799 206.8 45.9099 203.14 44.6899C200.1 43.6499 196 42.2099 196 37.6899C196 33.6499 199.89 30.4299 205.22 30.4299C210.03 30.4299 213.81 33.2799 214.77 37.4299L210.85 38.4999H210.83Z" fill="#60682D"/>
<path d="M127.89 96.1201L122.72 106.34H117.84L116.89 108.21H121.56C121.5 108.57 121.39 108.9 121.26 109.23L120.92 109.89C120.7 110.25 120.43 110.59 120.12 110.91C119.1 111.95 117.84 112.46 116.35 112.46C114.86 112.46 113.6 111.94 112.59 110.91C111.57 109.88 111.06 108.6 111.06 107.08C111.06 105.56 111.58 104.3 112.61 103.25C113.64 102.21 114.9 101.7 116.4 101.7C117.78 101.7 119 102.21 120.06 103.23C120.18 103.34 120.29 103.46 120.39 103.58L121.27 101.48C119.84 100.28 118.22 99.6801 116.43 99.6801C114.38 99.6801 112.62 100.38 111.16 101.77C110.84 100.51 110.19 99.3901 109.19 98.4001C107.73 96.9501 105.99 96.2201 103.96 96.2201C101.93 96.2201 100.13 96.9401 98.66 98.3901C97.88 99.1601 97.3 100 96.93 100.93L92.48 109.98L87.9 100.55H85.52L92.42 114.51L96.77 105.92C97.15 107.16 97.84 108.23 98.87 109.12C100.34 110.4 101.99 111.04 103.84 111.04C105.89 111.04 107.65 110.34 109.11 108.95C109.43 110.21 110.08 111.33 111.07 112.32C112.52 113.78 114.27 114.5 116.31 114.5C118.35 114.5 120.13 113.78 121.6 112.33C122.37 111.58 122.93 110.75 123.3 109.85L127.82 100.66L132.4 110.1H134.78L127.87 96.1401L127.89 96.1201ZM103.88 109C102.5 109 101.28 108.49 100.23 107.48C99.17 106.46 98.64 105.17 98.64 103.59C98.64 102.82 98.77 102.12 99.04 101.48L99.38 100.81C99.6 100.45 99.86 100.11 100.18 99.8001C101.2 98.7601 102.46 98.2501 103.95 98.2501C105.44 98.2501 106.69 98.7701 107.7 99.8001C108.72 100.83 109.23 102.1 109.23 103.63C109.23 105.16 108.71 106.41 107.68 107.46C106.65 108.5 105.39 109.01 103.89 109.01L103.88 109Z" fill="#9CB731"/>
<path d="M110.17 84.8901C122.13 84.8901 133.34 85.8101 142.93 87.4001C134.12 84.7101 122.68 83.0901 110.17 83.0901C97.6599 83.0901 86.2199 84.7101 77.4099 87.4001C86.9999 85.8001 98.1999 84.8901 110.17 84.8901Z" fill="#9CB731"/>
<path d="M94.45 12.19V14.27H85.03V0.280029H87.25V12.19H94.45Z" fill="#60682D"/>
<path d="M104.76 0C108.78 0 112.04 3.06 112.04 7.28C112.04 11.5 108.78 14.56 104.76 14.56C100.74 14.56 97.5 11.5 97.5 7.28C97.5 3.06 100.74 0 104.76 0ZM104.76 12.37C107.62 12.37 109.74 10.29 109.74 7.27C109.74 4.25 107.62 2.17 104.76 2.17C101.9 2.17 99.78 4.21 99.78 7.27C99.78 10.33 101.88 12.37 104.76 12.37Z" fill="#60682D"/>
<path d="M124.29 4.36C123.97 2.8 122.65 1.92 121.15 1.92C119.65 1.92 118.53 2.68 118.53 3.8C118.53 5.14 120.29 5.58 122.09 6.14C124.09 6.78 126.59 7.76 126.59 10.38C126.59 12.8 124.49 14.56 121.37 14.56C118.25 14.56 116.43 12.84 115.83 10.4L117.95 9.82C118.21 11.28 119.43 12.58 121.45 12.58C123.23 12.58 124.27 11.66 124.27 10.46C124.27 8.72 122.11 8.36 120.13 7.7C118.49 7.14 116.27 6.36 116.27 3.92C116.27 1.74 118.37 0 121.25 0C123.85 0 125.89 1.54 126.41 3.78L124.29 4.36Z" fill="#60682D"/>
</svg>
