<svg width="95" height="51" viewBox="0 0 95 51" fill="none" xmlns="http://www.w3.org/2000/svg">
<g clip-path="url(#clip0_71_732)">
<path d="M29.12 49.5303V50.2703H25.64V45.2603H29.08V46.0003H26.43V47.3003H28.54V48.0003H26.43V49.5203H29.12V49.5303Z" fill="#909090"/>
<path d="M37.49 45.27L35.42 50.28H34.59L32.52 45.27H33.39L34.72 48.58C34.88 49 35 49.39 35.01 49.39C35.01 49.39 35.13 49 35.3 48.58L36.63 45.27H37.49Z" fill="#909090"/>
<path d="M44.45 49.5303V50.2703H40.97V45.2603H44.41V46.0003H41.76V47.3003H43.87V48.0003H41.76V49.5203H44.45V49.5303Z" fill="#909090"/>
<path d="M52.64 45.27V50.28H51.9L50.08 47.82C49.64 47.21 49.21 46.59 49.2 46.59C49.2 46.59 49.21 47.26 49.21 48.16V50.28H48.42V45.27H49.16L51 47.74C51.36 48.23 51.86 48.93 51.87 48.93C51.87 48.93 51.86 48.19 51.86 47.41V45.28H52.65L52.64 45.27Z" fill="#909090"/>
<path d="M60.28 45.27V46.01H58.66V50.27H57.87V46.01H56.25V45.27H60.28Z" fill="#909090"/>
<path d="M65.99 45.1602C67.43 45.1602 68.59 46.2502 68.59 47.7602C68.59 49.2702 67.42 50.3602 65.99 50.3602C64.56 50.3602 63.39 49.2602 63.39 47.7602C63.39 46.2602 64.55 45.1602 65.99 45.1602ZM65.99 49.5902C67.01 49.5902 67.77 48.8502 67.77 47.7702C67.77 46.6902 67.01 45.9502 65.99 45.9502C64.97 45.9502 64.21 46.6802 64.21 47.7702C64.21 48.8602 64.96 49.5902 65.99 49.5902Z" fill="#909090"/>
<path d="M74.98 46.7202C74.87 46.1602 74.39 45.8502 73.86 45.8502C73.33 45.8502 72.92 46.1202 72.92 46.5202C72.92 47.0002 73.55 47.1602 74.19 47.3602C74.91 47.5902 75.8 47.9402 75.8 48.8802C75.8 49.7502 75.05 50.3702 73.93 50.3702C72.81 50.3702 72.16 49.7502 71.95 48.8802L72.71 48.6702C72.8 49.1902 73.24 49.6602 73.96 49.6602C74.6 49.6602 74.97 49.3302 74.97 48.9002C74.97 48.2802 74.2 48.1502 73.49 47.9102C72.9 47.7102 72.11 47.4302 72.11 46.5602C72.11 45.7802 72.86 45.1602 73.89 45.1602C74.82 45.1602 75.55 45.7102 75.73 46.5102L74.97 46.7202H74.98Z" fill="#909090"/>
<path d="M81.21 0L71.29 19.6H61.94L60.11 23.18H69.06C68.93 23.86 68.74 24.51 68.48 25.13L67.84 26.4C67.42 27.09 66.91 27.74 66.3 28.35C64.34 30.33 61.93 31.32 59.08 31.32C56.23 31.32 53.82 30.33 51.88 28.34C49.93 26.36 48.95 23.92 48.95 21C48.95 18.08 49.94 15.67 51.91 13.66C53.88 11.67 56.31 10.68 59.18 10.68C61.83 10.68 64.16 11.65 66.19 13.6C66.42 13.82 66.62 14.05 66.82 14.28L68.5 10.25C65.75 7.95 62.66 6.79 59.23 6.79C55.3 6.79 51.93 8.13 49.13 10.8C48.52 8.39 47.26 6.23 45.36 4.34C42.58 1.56 39.24 0.17 35.33 0.17C31.42 0.17 28 1.55 25.18 4.32C23.68 5.79 22.58 7.41 21.87 9.19L13.34 26.54L4.56 8.45H0L13.24 35.22L21.58 18.75C22.3 21.13 23.64 23.18 25.6 24.89C28.41 27.34 31.59 28.56 35.13 28.56C39.06 28.56 42.43 27.23 45.23 24.55C45.84 26.96 47.1 29.12 49 31.01C51.79 33.8 55.14 35.2 59.04 35.2C62.94 35.2 66.37 33.82 69.19 31.05C70.66 29.61 71.74 28.03 72.45 26.29L81.11 8.67L89.89 26.76H94.45L81.21 0ZM35.17 24.68C32.52 24.68 30.19 23.71 28.16 21.76C26.13 19.81 25.11 17.32 25.11 14.3C25.11 12.83 25.37 11.48 25.87 10.25L26.52 8.97C26.94 8.28 27.45 7.63 28.05 7.03C30.01 5.04 32.42 4.05 35.27 4.05C38.12 4.05 40.53 5.04 42.47 7.03C44.42 9 45.4 11.45 45.4 14.37C45.4 17.29 44.41 19.7 42.44 21.71C40.46 23.7 38.04 24.69 35.17 24.69V24.68Z" fill="white"/>
</g>
<defs>
<clipPath id="clip0_71_732">
<rect width="94.45" height="50.37" fill="white"/>
</clipPath>
</defs>
</svg>
