<?xml version="1.0" encoding="UTF-8"?>
<svg id="Capa_1" xmlns="http://www.w3.org/2000/svg" xmlns:xlink="http://www.w3.org/1999/xlink" version="1.1" viewBox="0 0 204 108">
  <!-- Generator: Adobe Illustrator 29.2.1, SVG Export Plug-In . SVG Version: 2.1.0 Build 116)  -->
  <defs>
    <style>
      .st0 {
        fill: none;
      }

      .st1 {
        fill: #fff;
      }

      .st2 {
        clip-path: url(#clippath);
      }
    </style>
    <clipPath id="clippath">
      <rect class="st0" width="203.9" height="107.9"/>
    </clipPath>
  </defs>
  <g class="st2">
    <path class="st1" d="M65.3,94.7h2.2l-5.3,12.9h-2.1l-5.3-12.9h2.2l3.4,8.5c.4,1.1.7,2.1.7,2.1h0s.3-1,.7-2.1l3.4-8.5ZM78.5,101.8h5.4v-1.8h-5.4v-3.3h6.8v-1.9h-8.9v12.9h9v-1.9h-6.9v-3.9ZM104.5,100.2c0,2,0,3.9,0,3.9h0s-1.3-1.8-2.2-3.1l-4.7-6.4h-1.9v12.9h2v-5.5c0-2.3,0-4,0-4h0s1.1,1.6,2.3,3.2l4.7,6.3h1.9v-12.9h0s-2,0-2,0v5.5ZM125.4,102.1c0,2.6-1.2,3.8-3.4,3.8s-3.4-1.2-3.4-3.8v-7.4h-2v7.4c0,3.7,2,5.7,5.4,5.7s5.4-2,5.4-5.7v-7.4h-2v7.4ZM139.5,101.8h5.4v-1.8h-5.4v-3.3h6.8v-1.9h-8.9v12.9h9v-1.9h-6.9v-3.9ZM203.9,57.8h-9.8l-19-39.1-18.7,38c-1.5,3.8-3.9,7.2-7,10.3-6.1,6-13.4,9-21.9,9s-15.7-3-21.7-9c-4.1-4.1-6.8-8.7-8.1-14-6,5.8-13.3,8.7-21.8,8.7s-14.5-2.6-20.6-7.9c-4.2-3.7-7.1-8.1-8.7-13.3l-18,35.6L0,18.2h9.9l19,39.1,18.4-37.5c1.5-3.8,3.9-7.4,7.1-10.5C60.5,3.3,67.9.4,76.3.4s15.7,3,21.7,9c4.1,4.1,6.8,8.7,8.1,14,6-5.8,13.3-8.6,21.8-8.6s14.1,2.5,20,7.5l-3.6,8.7c-.4-.5-.9-1-1.4-1.5-4.4-4.2-9.4-6.3-15.1-6.3s-11.4,2.1-15.7,6.4c-4.3,4.3-6.4,9.5-6.4,15.8s2.1,11.6,6.3,15.8c4.2,4.3,9.4,6.4,15.5,6.4s11.4-2.1,15.6-6.4c1.3-1.3,2.4-2.7,3.3-4.2l1.4-2.8c.6-1.3,1-2.7,1.2-4.2h-19.3l3.9-7.7h20.2L175.3,0l28.6,57.8ZM98,31c0-6.3-2.1-11.6-6.3-15.8-4.2-4.3-9.4-6.4-15.5-6.4s-11.3,2.1-15.6,6.4c-1.3,1.3-2.4,2.7-3.3,4.2l-1.4,2.8c-1.1,2.7-1.7,5.6-1.7,8.7,0,6.5,2.2,11.9,6.6,16.1,4.4,4.2,9.4,6.3,15.1,6.3h0c6.2,0,11.4-2.1,15.7-6.4,4.3-4.3,6.4-9.5,6.4-15.8Z"/>
  </g>
</svg>