<svg xmlns="http://www.w3.org/2000/svg" width="146" height="77" viewBox="0 0 146 77" fill="none">
<path d="M45.32 67.41L41.53 76.59H40.01L36.22 67.41H37.81L40.25 73.48C40.54 74.25 40.76 74.96 40.77 74.96H40.78C40.78 74.96 41 74.25 41.3 73.48L43.74 67.41H45.31H45.32Z" fill="#449F82"/>
<path d="M58.08 75.22V76.58H51.7V67.4H58V68.76H53.15V71.14H57.02V72.43H53.15V75.21H58.08V75.22Z" fill="#449F82"/>
<path d="M73.0898 67.41V76.59H71.7299L68.3898 72.08C67.5798 70.97 66.7898 69.83 66.7798 69.83H66.7698C66.7698 69.83 66.7999 71.06 66.7999 72.7V76.59H65.3398V67.41H66.6998L70.0698 71.93C70.7298 72.82 71.6399 74.11 71.6599 74.11H71.6698C71.6698 74.11 71.6398 72.76 71.6398 71.32V67.41H73.0998H73.0898Z" fill="#449F82"/>
<path d="M87.97 67.41V72.69C87.97 75.34 86.51 76.77 84.1 76.77C81.69 76.77 80.25 75.34 80.25 72.69V67.41H81.7V72.68C81.7 74.53 82.51 75.42 84.1 75.42C85.69 75.42 86.52 74.53 86.52 72.68V67.41H87.96H87.97Z" fill="#449F82"/>
<path d="M101.51 75.22V76.58H95.1299V67.4H101.43V68.76H96.5799V71.14H100.45V72.43H96.5799V75.21H101.51V75.22Z" fill="#449F82"/>
<path d="M124.78 0L109.53 30.12H95.17L92.37 35.63H106.12C105.92 36.67 105.63 37.67 105.23 38.62L104.24 40.57C103.6 41.63 102.81 42.63 101.88 43.56C98.86 46.61 95.17 48.13 90.79 48.13C86.41 48.13 82.7 46.6 79.72 43.55C76.72 40.52 75.22 36.76 75.22 32.27C75.22 27.78 76.74 24.08 79.77 20.99C82.8 17.94 86.53 16.42 90.95 16.42C95.02 16.42 98.61 17.92 101.72 20.91C102.07 21.24 102.38 21.6 102.69 21.96L105.28 15.76C101.06 12.22 96.31 10.45 91.04 10.45C85 10.45 79.82 12.5 75.52 16.6C74.58 12.89 72.65 9.58 69.73 6.67C65.43 2.4 60.29 0.26 54.29 0.26C48.29 0.26 43.02 2.39 38.7 6.64C36.39 8.9 34.7 11.39 33.62 14.12L20.51 40.78L7.01 12.98H0L20.34 54.11L33.15 28.81C34.26 32.47 36.31 35.62 39.32 38.25C43.64 42.01 48.52 43.89 53.96 43.89C60.01 43.89 65.18 41.84 69.48 37.73C70.42 41.44 72.35 44.75 75.27 47.66C79.56 51.95 84.7 54.09 90.7 54.09C96.77 54.09 101.97 51.96 106.29 47.71C108.55 45.5 110.21 43.06 111.3 40.4L124.61 13.32L138.11 41.12H145.12L124.78 0ZM54.04 37.93C49.97 37.93 46.38 36.43 43.27 33.44C40.15 30.44 38.58 26.62 38.58 21.97C38.58 19.71 38.97 17.64 39.75 15.76L40.75 13.79C41.39 12.73 42.18 11.74 43.1 10.81C46.12 7.76 49.82 6.24 54.19 6.24C58.56 6.24 62.27 7.77 65.26 10.81C68.26 13.84 69.76 17.6 69.76 22.09C69.76 26.58 68.24 30.28 65.21 33.36C62.17 36.41 58.45 37.94 54.03 37.94L54.04 37.93Z" fill="#242C3F"/>
</svg>