<svg width="100" height="54" viewBox="0 0 100 54" fill="none" xmlns="http://www.w3.org/2000/svg">
<path d="M30.8299 52.4402V53.2302H27.1399V47.9302H30.7799V48.7202H27.9799V50.1002H30.2099V50.8402H27.9799V52.4502H30.8299V52.4402Z" fill="#A2A2A2"/>
<path d="M39.6999 47.9202L37.5099 53.2202H36.6299L34.4399 47.9202H35.3599L36.7699 51.4302C36.9399 51.8802 37.0699 52.2902 37.0699 52.2902C37.0699 52.2902 37.1999 51.8802 37.3699 51.4302L38.7799 47.9202H39.6899H39.6999Z" fill="#A2A2A2"/>
<path d="M47.0599 52.4402V53.2302H43.3699V47.9302H47.0099V48.7202H44.2099V50.1002H46.4399V50.8402H44.2099V52.4502H47.0599V52.4402Z" fill="#A2A2A2"/>
<path d="M55.73 47.9202V53.2202H54.94L53.01 50.6202C52.54 49.9802 52.09 49.3202 52.08 49.3202C52.08 49.3202 52.1 50.0302 52.1 50.9802V53.2302H51.26V47.9302H52.05L54 50.5402C54.38 51.0502 54.91 51.8002 54.92 51.8002C54.92 51.8002 54.9 51.0202 54.9 50.1902V47.9302H55.74L55.73 47.9202Z" fill="#A2A2A2"/>
<path d="M63.8198 47.9202V48.7102H62.0998V53.2202H61.2698V48.7102H59.5598V47.9202H63.8198Z" fill="#A2A2A2"/>
<path d="M69.8699 47.8201C71.3899 47.8201 72.6299 48.9801 72.6299 50.5801C72.6299 52.1801 71.3999 53.3401 69.8699 53.3401C68.3399 53.3401 67.1199 52.1801 67.1199 50.5801C67.1199 48.9801 68.3499 47.8201 69.8699 47.8201ZM69.8699 52.5001C70.9499 52.5001 71.7599 51.7101 71.7599 50.5701C71.7599 49.4301 70.9599 48.6401 69.8699 48.6401C68.7799 48.6401 67.9799 49.4101 67.9799 50.5701C67.9799 51.7301 68.7699 52.5001 69.8699 52.5001Z" fill="#A2A2A2"/>
<path d="M79.3799 49.4701C79.2599 48.8801 78.7599 48.5501 78.1899 48.5501C77.6199 48.5501 77.1999 48.8401 77.1999 49.2601C77.1999 49.7701 77.8699 49.9301 78.5499 50.1501C79.3099 50.3901 80.2499 50.7601 80.2499 51.7601C80.2499 52.6801 79.4499 53.3401 78.2699 53.3401C77.0899 53.3401 76.3999 52.6901 76.1699 51.7601L76.9699 51.5401C77.0699 52.0901 77.5299 52.5801 78.2999 52.5801C78.9699 52.5801 79.3699 52.2301 79.3699 51.7801C79.3699 51.1201 78.5499 50.9901 77.7999 50.7401C77.1799 50.5301 76.3399 50.2301 76.3399 49.3101C76.3399 48.4801 77.1399 47.8301 78.2299 47.8301C79.2099 47.8301 79.9899 48.4101 80.1799 49.2601L79.3799 49.4801V49.4701Z" fill="#A2A2A2"/>
<path d="M85.98 0L75.47 20.76H65.58L63.65 24.55H73.12C72.99 25.27 72.78 25.96 72.51 26.61L71.83 27.96C71.39 28.69 70.84 29.38 70.2 30.02C68.12 32.12 65.57 33.17 62.56 33.17C59.55 33.17 56.99 32.12 54.93 30.02C52.87 27.93 51.83 25.34 51.83 22.25C51.83 19.16 52.88 16.61 54.97 14.48C57.06 12.38 59.63 11.33 62.67 11.33C65.47 11.33 67.95 12.36 70.09 14.42C70.33 14.65 70.55 14.89 70.76 15.14L72.54 10.87C69.63 8.43 66.36 7.21 62.73 7.21C58.57 7.21 55 8.62 52.03 11.45C51.38 8.9 50.05 6.61 48.04 4.61C45.08 1.65 41.54 0.18 37.41 0.18C33.28 0.18 29.65 1.64 26.67 4.58C25.08 6.14 23.91 7.85 23.17 9.74L14.14 28.11L4.83 8.94H0L14.02 37.28L22.85 19.85C23.61 22.37 25.03 24.54 27.1 26.36C30.08 28.95 33.44 30.25 37.19 30.25C41.35 30.25 44.92 28.84 47.89 26.01C48.54 28.56 49.87 30.85 51.88 32.85C54.84 35.8 58.38 37.28 62.51 37.28C66.64 37.28 70.27 35.81 73.25 32.89C74.81 31.37 75.95 29.69 76.7 27.85L85.87 9.19L95.17 28.35H100L85.98 0ZM37.24 26.13C34.44 26.13 31.96 25.1 29.82 23.03C27.67 20.97 26.59 18.33 26.59 15.13C26.59 13.58 26.86 12.15 27.4 10.85L28.09 9.49C28.53 8.76 29.07 8.08 29.71 7.44C31.79 5.34 34.34 4.29 37.36 4.29C40.38 4.29 42.93 5.34 44.98 7.44C47.05 9.53 48.08 12.12 48.08 15.21C48.08 18.3 47.03 20.85 44.94 22.98C42.85 25.08 40.28 26.13 37.24 26.13Z" fill="#242C3F"/>
</svg>
